<svg version="1" xmlns="http://www.w3.org/2000/svg" width="346.667" height="346.667" viewBox="0 0 260.000000 260.000000"><path d="M0 125.5V251h14.1c12 0 14-.2 13.6-1.5-.4-.8-.2-1.7.3-2 .6-.4 1-1.8 1-3.1v-2.6l29.3.6c16 .3 31.8.8 35 1.2 4.7.6 5.7.4 5.7-.8 0-1.7 2.9-2.8 7.5-2.8 4.1 0 5.5-1.6 5.5-6.2 0-5.2 2.1-7.2 10-9.5l6.5-1.9-.3-5.6-.4-5.5 6.1-6.1c4.2-4.3 6.3-7.3 7.1-10.4.7-2.3 1.8-5.1 2.6-6.2 2.1-3 1.7-5.3-1.4-9.9-1.6-2.3-3.2-5.6-3.6-7.2-2-8.9-3.8-10.2-16.6-12.8-8.5-1.6-18.7-5.2-21.1-7.3-.8-.8-2.3-1.4-3.1-1.4-2.5 0-2.7-2.1-.5-6.3 2-3.9 1.9-10.8-.3-11.5-1.3-.5-1.3-4.9 0-5.7 1.7-1 1.2-18.2-.6-21.7-.9-1.7-2-5.6-2.5-8.7-.5-3.1-1.2-6.8-1.5-8.2-.5-2.4-.2-2.8 2.3-3.3 1.6-.4 3.8-2 5.1-4 2-2.9 2.2-3.8 1.3-7.7-.6-2.4-1.1-5.7-1.1-7.3 0-1.7-1-4-2.1-5.2-1.8-2-2-2.7-1.1-5.1 1.9-5 2.4-11.1 1.2-14.9-1.4-4.1-5.5-6.4-11.7-6.4h-3.8l3-2c1.7-1.1 3.6-2 4.3-2 1.9 0 11.8 4.8 13 6.3.5.6 1.3 3.8 1.6 6.9.4 3.2 1.4 7.1 2.2 8.7 1.4 2.8 1.6 2.9 7.7 2.4 8-.6 8.7-.9 8.7-3.2 0-2 1.8-3.1 5.2-3.1 2 0 2.1-.5.7-6-.3-1.3 1.2-1.5 9.7-1.5 5.5.1 11.3.6 13 1.2 1.6.6 3.7 1.4 4.8 1.7 1.7.6 1.8.8.2 2.4-2.7 3.1-1.3 13.2 1.8 13.2.6 0 4.7 2.2 9.1 4.8 7.5 4.5 8 5 7.7 7.9-.4 3.5 1.1 6.3 7.5 13.8 5.4 6.5 12.1 20.5 12.9 27 .4 2.7 1.6 6.6 2.9 8.5 6.3 9.9 5.9 8.7 6 22.7 0 12.2.2 13.4 2.3 16.3 2.2 2.9 2.2 3.3.8 4.9-.9 1-1.6 3.3-1.6 5.2 0 2-.7 4.4-1.5 5.5-1.7 2.3-2.2 22.9-.5 23.9.6.4-.1 1.8-1.7 3.5-1.6 1.5-3.9 4.2-5.2 6-1.3 1.8-3.7 3.7-5.3 4.2-1.5.6-2.8 1.4-2.8 1.9s-.7.9-1.5.9c-.7 0-1.8.6-2.2 1.3-1.6 2.5-6.6 5.7-9 5.7-2.2 0-2.4-.3-1.8-2.8.3-1.5 1.1-2.9 1.6-3 .5-.2.7-.8.3-1.3-.7-1.2-5.1-1.1-5.9.1-.4.6-2.2 1.7-4.1 2.5-1.9.8-4.2 2.1-5 3-.9.8-2.5 1.5-3.7 1.5-1.2 0-3.2.3-4.4.6-1.9.5-2.1 1.1-1.6 3.8.3 1.7.7 3.2.9 3.4.4.5 15.7-1.9 16.9-2.7 1.4-.9 12.9-2.8 26.5-4.5 6.3-.8 13.5-2 16-2.6 2.5-.6 5.7-1.4 7.3-1.7 3.3-.6 6.7-4.6 6-7.2-.2-1-3.2-3.4-6.6-5.2-5-2.8-6.2-3.9-6.2-5.9 0-2.2.5-2.5 4.3-2.8 4.7-.3 7.6.2 22 4.2 5.1 1.4 10.2 2.6 11.3 2.6 4.1 0 1.1-3.8-5.1-6.5-2.5-1.1-6.9-3.2-9.8-4.7-2.9-1.5-7.5-3-10.2-3.4-8.5-1.1-4.4-2.5 7.3-2.4 6.2.1 14.1 0 17.7-.2 3.6-.1 7.3.1 8.3.6 1.5.7 1.7.2 1.7-4.2 0-4.3-.3-5-2.2-5.5-2.7-.6-8.6-2.6-10.9-3.7-1.7-.9-18.1-5.1-21.3-5.5-5.4-.7-6.8-2.5-4.2-5.4 3.8-4.2 2.8-62.5-1.3-72.9-2.2-5.4-2.8-10.6-1.2-10 1.3.5 12.1 14.2 12.1 15.4 0 1.4 3.3 4.4 4.8 4.4 1.6 0 1.5-5.7-.1-6.7-.7-.4-1.8-2.1-2.5-3.6-1.2-2.7-1.1-2.8 1-2.1 1.3.4 3.2 1.3 4.3 2 3.6 2.5 4.1 1.8 3.7-6.3-.5-8.3-3.7-17.5-7.2-20.3-1-.8-2.8-4.5-3.9-8.3-1.1-3.7-3.2-8-4.6-9.5-1.5-1.6-2.4-3.7-2.3-5.2.3-3.6-.9-5-4.1-5-2.7 0-5.3 2-6.4 5-.3.8-.5-.1-.5-2.1.2-4.1-3.3-10.4-6.1-11.2-2-.5-3.6-6.3-2.2-8.1.4-.6 1.1-2.3 1.5-3.8.4-1.9 1.5-3 3.4-3.4 1.5-.4 4.3-1.7 6.3-3 3.2-2 5.5-2.3 19.3-3 15.3-.7 15.5-.7 13.3-2.5-1.2-1-2.7-2.3-3.4-2.9-.8-.7-41.9-1-123.3-1H0v125.5zM24.7 18.7c.4 1 1.1 2.1 1.6 2.4.5.4 1.1 1.8 1.2 3.3.3 2.4 0 2.6-3.3 2.6-2.1 0-4.9.7-6.4 1.4-2.7 1.4-2.8 1.4-4.4-1.9-1.1-2.4-2-3.2-3.2-2.8-1 .3-.5-.4 1-1.5 1.4-1.2 3.1-2.2 3.7-2.2.6 0 1.1-.5 1.1-1.1 0-.7 1.2-1 2.9-.7 1.7.2 2.8.1 2.5-.4-.3-.4.2-.8 1.1-.8.8 0 1.9.8 2.2 1.7zM178 24.5c0 2.4 2.2 6.5 3.6 6.5.7 0 3.4 1.6 6 3.6 7.8 6 13.4 8.6 16.4 7.6 3.7-1.3 8.7.4 10.2 3.5.7 1.4 2.2 3.1 3.3 3.7 3.3 1.8 4.9 4.8 4.6 8.4-.2 2.8.4 3.9 3.8 7 3.9 3.5 5.2 6.2 3.2 6.2-.5 0-3.3-1.1-6.3-2.5-2.9-1.4-5.9-2.5-6.7-2.5-.8 0-2.5-.9-3.7-2.1-2.3-2.1-7.8-5.6-10.4-6.5-.9-.3-3.1-2.7-4.9-5.4-2.8-4.2-4.8-5.7-12.5-9.5-5-2.5-9.8-4.5-10.7-4.5-.9 0-2.3-.8-3.2-1.8-1.5-1.6-1.5-2.1.7-6.6 2.8-5.9 6.6-8.8 6.6-5.1zm-17.2 4.2c.8 1.3.4 2-1.5 3-3.3 1.7-3.3 1.7-3.3-1 0-3.9 3.1-5.2 4.8-2zm-79.4 6.2c.3.5-.7 1.4-2.3 1.9-2.3.8-3.1.7-3.5-.3-.2-.7-.2-1.6.1-1.9 1-.9 5.1-.7 5.7.3zm-8.7 10.7c.1 2.5-.9 4.2-4.8 8.4-2.6 2.8-5.1 6.1-5.4 7.1-.4 1.1-1.9 3.3-3.5 5-3.7 4.1-4.8 2.2-2.1-3.6 1.2-2.5 2.1-5 2.1-5.7 0-.6 1-2.2 2.1-3.4 2.3-2.4 4.1-5.3 5.9-9.2 1.6-3.6 5.5-2.6 5.7 1.4z"/><path d="M136.2 46.6c-.5 1.1-.6 2.8-.2 3.9 2.9 9 4.2 10.1 7.6 6.4 1.2-1.3 2.7-1.9 4.1-1.6 3.2.6 2.9-1.3-1-5.6-3.9-4.4-9-5.9-10.5-3.1zM246.2 91.7c.2 1.8 1 2.9 2.2 3.1 1.5.3 1.7 0 1.1-1.4-.4-1.1-.8-2.5-.8-3.2 0-.6-.7-1.2-1.4-1.2-1 0-1.3.9-1.1 2.7zM160.6 103.1c-.3.8-.8 2.7-1 4.2-.5 3-2.2 5.6-4.3 7-.7.4-1.3 1.5-1.3 2.2 0 .8-.4 1.5-1 1.5-.5 0-1 1.3-1 3 0 2.7.3 3 3 3 2.3 0 2.9.4 2.8 1.7-.7 5 2.4 19.3 4.1 19.3.4 0 1.5 1.3 2.4 2.9 1 1.7 2.7 3.3 4 3.7 1.2.4 3.8 1.9 5.7 3.4 5.8 4.5 7.4 5.1 10.9 3.9 3.6-1.3 3.7-1.6 1.4-4.1-2.4-2.6-.6-5.1 4.1-5.9 4-.6 9.5-5.3 9.6-8.1 0-.9-.8-2.3-1.8-3-1-.7-2.7-2.7-3.7-4.3-1-1.7-3.1-4.4-4.6-6-6.2-6.7-6.9-7.5-6.8-8.2.5-2.8-.4-5.4-2.6-7.7-1.4-1.5-2.5-3.1-2.5-3.6s-1.2-.7-2.7-.4c-4.2.7-9.3 2.7-9.3 3.6 0 1.3-4.8.9-5.6-.4-.5-.7-.2-.9.8-.5 1.3.5 1.5-.1 1.1-3.6-.6-4.8-1-5.6-1.7-3.6zm4.9 11.7c-.3.7-.5 2-.5 2.8 0 1.7-2.2 1.8-3.7.3-.8-.8-.8-1.7-.1-2.8 1.2-2 5.1-2.3 4.3-.3zm20.6 25.8c1.1 1.4.9 1.5-1.6 1.2-1.6-.1-3-.9-3.3-1.6-.6-1.8 3.3-1.5 4.9.4zM236.5 148.7c-2.5.5-6.9 6.7-6.2 8.6.3.8 2.5 1.7 4.9 2.1 7.3 1.1 19.2 3.8 21 4.7 3.3 1.7 3.9 1 3.6-4.2l-.3-5.2-8.5-3.3c-8.3-3.2-10.3-3.6-14.5-2.7zM229.5 165.5c.3 3.2-.1 2.9 6.5 4.3 11.6 2.3 15.3 3.2 16.4 4.1.6.5 2.6 1.1 4.4 1.3 2.8.4 3.2.2 3.2-1.8 0-2.3-1-2.8-11.1-5.8-3.1-.9-6.2-2.3-6.9-3.1-.8-1-3.1-1.5-7-1.5-5.6 0-5.8.1-5.5 2.5zM253 195c-1.2.8-1.1 1 .6 1 1.2 0 2.7.7 3.4 1.5.7.8 1.6 1.5 2.1 1.5s.9-.7.9-1.5-.9-1.5-2-1.5-2-.5-2-1c0-1.3-1.1-1.3-3 0z"/></svg>